<mxfile host="app.diagrams.net" modified="2022-02-28T03:40:59.620Z" agent="5.0 (Windows NT 10.0; Win64; x64) AppleWebKit/537.36 (KHTML, like Gecko) Chrome/98.0.4758.102 Safari/537.36" etag="-YfWkTBpxnNp5Mq1EEz_" version="16.5.6" type="github" pages="5">
  <diagram id="hFA5m3MKP3rRqHJ6pxQ6" name="Page-1">
    <mxGraphModel dx="1422" dy="761" grid="0" gridSize="10" guides="1" tooltips="1" connect="1" arrows="1" fold="1" page="1" pageScale="1" pageWidth="1169" pageHeight="827" math="0" shadow="0">
      <root>
        <mxCell id="0" />
        <mxCell id="1" parent="0" />
        <mxCell id="bk4jM8zIOuM2MzvCMT-Z-3" style="edgeStyle=orthogonalEdgeStyle;rounded=0;orthogonalLoop=1;jettySize=auto;html=1;exitX=0.5;exitY=1;exitDx=0;exitDy=0;" edge="1" parent="1" source="bk4jM8zIOuM2MzvCMT-Z-1" target="bk4jM8zIOuM2MzvCMT-Z-2">
          <mxGeometry relative="1" as="geometry" />
        </mxCell>
        <mxCell id="bk4jM8zIOuM2MzvCMT-Z-1" value="服务器通过热门明星榜采集一些明星的人脸数据" style="rounded=1;whiteSpace=wrap;html=1;" vertex="1" parent="1">
          <mxGeometry x="490" y="54" width="120" height="60" as="geometry" />
        </mxCell>
        <mxCell id="bk4jM8zIOuM2MzvCMT-Z-5" style="edgeStyle=orthogonalEdgeStyle;rounded=0;orthogonalLoop=1;jettySize=auto;html=1;exitX=0.5;exitY=1;exitDx=0;exitDy=0;" edge="1" parent="1" source="bk4jM8zIOuM2MzvCMT-Z-2" target="bk4jM8zIOuM2MzvCMT-Z-4">
          <mxGeometry relative="1" as="geometry" />
        </mxCell>
        <mxCell id="bk4jM8zIOuM2MzvCMT-Z-2" value="服务器通过FaceNet等神经网络训练出明星识别id模型" style="rounded=1;whiteSpace=wrap;html=1;" vertex="1" parent="1">
          <mxGeometry x="490" y="164" width="120" height="60" as="geometry" />
        </mxCell>
        <mxCell id="bk4jM8zIOuM2MzvCMT-Z-7" style="edgeStyle=orthogonalEdgeStyle;rounded=0;orthogonalLoop=1;jettySize=auto;html=1;exitX=0.5;exitY=1;exitDx=0;exitDy=0;" edge="1" parent="1" source="bk4jM8zIOuM2MzvCMT-Z-4" target="bk4jM8zIOuM2MzvCMT-Z-6">
          <mxGeometry relative="1" as="geometry" />
        </mxCell>
        <mxCell id="bk4jM8zIOuM2MzvCMT-Z-4" value="客户端开播页中采集前置摄像头数据，通过物体识别网络截取人脸截图" style="rounded=1;whiteSpace=wrap;html=1;" vertex="1" parent="1">
          <mxGeometry x="490" y="274" width="120" height="60" as="geometry" />
        </mxCell>
        <mxCell id="bk4jM8zIOuM2MzvCMT-Z-9" style="edgeStyle=orthogonalEdgeStyle;rounded=0;orthogonalLoop=1;jettySize=auto;html=1;exitX=0.5;exitY=1;exitDx=0;exitDy=0;entryX=0.5;entryY=0;entryDx=0;entryDy=0;" edge="1" parent="1" source="bk4jM8zIOuM2MzvCMT-Z-6" target="bk4jM8zIOuM2MzvCMT-Z-8">
          <mxGeometry relative="1" as="geometry" />
        </mxCell>
        <mxCell id="bk4jM8zIOuM2MzvCMT-Z-6" value="客户端上传人脸数据到服务器使用明星识别模型进行匹配" style="rounded=1;whiteSpace=wrap;html=1;" vertex="1" parent="1">
          <mxGeometry x="490" y="383.5" width="120" height="60" as="geometry" />
        </mxCell>
        <mxCell id="bk4jM8zIOuM2MzvCMT-Z-8" value="得到匹配明星列表以及相似系数" style="rounded=1;whiteSpace=wrap;html=1;" vertex="1" parent="1">
          <mxGeometry x="490" y="498" width="120" height="60" as="geometry" />
        </mxCell>
      </root>
    </mxGraphModel>
  </diagram>
  <diagram id="PjvcEB0g0XzV-J7c1r4Q" name="Page-2">
    <mxGraphModel dx="1422" dy="762" grid="0" gridSize="10" guides="1" tooltips="1" connect="1" arrows="1" fold="1" page="1" pageScale="1" pageWidth="1169" pageHeight="827" math="0" shadow="0">
      <root>
        <mxCell id="a3xDnKr9W6o3GTckTl9p-0" />
        <mxCell id="a3xDnKr9W6o3GTckTl9p-1" parent="a3xDnKr9W6o3GTckTl9p-0" />
        <mxCell id="-n30O4Ct67S6GFF_8Txn-0" style="edgeStyle=orthogonalEdgeStyle;rounded=0;orthogonalLoop=1;jettySize=auto;html=1;exitX=0.5;exitY=1;exitDx=0;exitDy=0;" edge="1" parent="a3xDnKr9W6o3GTckTl9p-1" source="-n30O4Ct67S6GFF_8Txn-1" target="-n30O4Ct67S6GFF_8Txn-3">
          <mxGeometry relative="1" as="geometry" />
        </mxCell>
        <mxCell id="-n30O4Ct67S6GFF_8Txn-1" value="服务器通过热门歌手榜的歌曲采集一些歌手的声音数据" style="rounded=1;whiteSpace=wrap;html=1;" vertex="1" parent="a3xDnKr9W6o3GTckTl9p-1">
          <mxGeometry x="490" y="54" width="120" height="60" as="geometry" />
        </mxCell>
        <mxCell id="-n30O4Ct67S6GFF_8Txn-2" style="edgeStyle=orthogonalEdgeStyle;rounded=0;orthogonalLoop=1;jettySize=auto;html=1;exitX=0.5;exitY=1;exitDx=0;exitDy=0;" edge="1" parent="a3xDnKr9W6o3GTckTl9p-1" source="-n30O4Ct67S6GFF_8Txn-3" target="-n30O4Ct67S6GFF_8Txn-5">
          <mxGeometry relative="1" as="geometry" />
        </mxCell>
        <mxCell id="-n30O4Ct67S6GFF_8Txn-3" value="服务器通过声音id神经网络训练出歌手的识别id模型" style="rounded=1;whiteSpace=wrap;html=1;" vertex="1" parent="a3xDnKr9W6o3GTckTl9p-1">
          <mxGeometry x="490" y="164" width="120" height="60" as="geometry" />
        </mxCell>
        <mxCell id="-n30O4Ct67S6GFF_8Txn-4" style="edgeStyle=orthogonalEdgeStyle;rounded=0;orthogonalLoop=1;jettySize=auto;html=1;exitX=0.5;exitY=1;exitDx=0;exitDy=0;" edge="1" parent="a3xDnKr9W6o3GTckTl9p-1" source="-n30O4Ct67S6GFF_8Txn-5" target="-n30O4Ct67S6GFF_8Txn-7">
          <mxGeometry relative="1" as="geometry" />
        </mxCell>
        <mxCell id="-n30O4Ct67S6GFF_8Txn-5" value="客户端开播页中采集用户上麦或者语音" style="rounded=1;whiteSpace=wrap;html=1;" vertex="1" parent="a3xDnKr9W6o3GTckTl9p-1">
          <mxGeometry x="490" y="274" width="120" height="60" as="geometry" />
        </mxCell>
        <mxCell id="-n30O4Ct67S6GFF_8Txn-6" style="edgeStyle=orthogonalEdgeStyle;rounded=0;orthogonalLoop=1;jettySize=auto;html=1;exitX=0.5;exitY=1;exitDx=0;exitDy=0;entryX=0.5;entryY=0;entryDx=0;entryDy=0;" edge="1" parent="a3xDnKr9W6o3GTckTl9p-1" source="-n30O4Ct67S6GFF_8Txn-7" target="-n30O4Ct67S6GFF_8Txn-8">
          <mxGeometry relative="1" as="geometry" />
        </mxCell>
        <mxCell id="-n30O4Ct67S6GFF_8Txn-7" value="客户端上传用户语音数据到服务器使用歌手i识别模型进行匹配" style="rounded=1;whiteSpace=wrap;html=1;" vertex="1" parent="a3xDnKr9W6o3GTckTl9p-1">
          <mxGeometry x="490" y="383.5" width="120" height="60" as="geometry" />
        </mxCell>
        <mxCell id="-n30O4Ct67S6GFF_8Txn-8" value="得到匹配歌手列表以及相似系数" style="rounded=1;whiteSpace=wrap;html=1;" vertex="1" parent="a3xDnKr9W6o3GTckTl9p-1">
          <mxGeometry x="490" y="498" width="120" height="60" as="geometry" />
        </mxCell>
      </root>
    </mxGraphModel>
  </diagram>
  <diagram id="bH2ufwe8EKfMqelxnTC8" name="Page-3">
    <mxGraphModel dx="1422" dy="762" grid="0" gridSize="10" guides="1" tooltips="1" connect="1" arrows="1" fold="1" page="1" pageScale="1" pageWidth="1169" pageHeight="827" math="0" shadow="0">
      <root>
        <mxCell id="cMxHRg4FrJ7R7kZyLCFy-0" />
        <mxCell id="cMxHRg4FrJ7R7kZyLCFy-1" parent="cMxHRg4FrJ7R7kZyLCFy-0" />
        <mxCell id="bjB36t6IgvT4LcBf4BN3-2" style="edgeStyle=orthogonalEdgeStyle;rounded=0;orthogonalLoop=1;jettySize=auto;html=1;exitX=0.5;exitY=1;exitDx=0;exitDy=0;" edge="1" parent="cMxHRg4FrJ7R7kZyLCFy-1" source="bjB36t6IgvT4LcBf4BN3-0" target="bjB36t6IgvT4LcBf4BN3-1">
          <mxGeometry relative="1" as="geometry" />
        </mxCell>
        <mxCell id="bjB36t6IgvT4LcBf4BN3-0" value="主播开播编辑开播信息，客户端检测正在输入标题信息" style="rounded=1;whiteSpace=wrap;html=1;" vertex="1" parent="cMxHRg4FrJ7R7kZyLCFy-1">
          <mxGeometry x="498" y="72" width="120" height="60" as="geometry" />
        </mxCell>
        <mxCell id="bjB36t6IgvT4LcBf4BN3-4" style="edgeStyle=orthogonalEdgeStyle;rounded=0;orthogonalLoop=1;jettySize=auto;html=1;exitX=0.5;exitY=1;exitDx=0;exitDy=0;" edge="1" parent="cMxHRg4FrJ7R7kZyLCFy-1" source="bjB36t6IgvT4LcBf4BN3-1" target="bjB36t6IgvT4LcBf4BN3-3">
          <mxGeometry relative="1" as="geometry" />
        </mxCell>
        <mxCell id="bjB36t6IgvT4LcBf4BN3-1" value="客户端请求服务器下发明星id和歌手声音匹配信息到客户端" style="rounded=1;whiteSpace=wrap;html=1;" vertex="1" parent="cMxHRg4FrJ7R7kZyLCFy-1">
          <mxGeometry x="498" y="186" width="120" height="54" as="geometry" />
        </mxCell>
        <mxCell id="bjB36t6IgvT4LcBf4BN3-6" style="edgeStyle=orthogonalEdgeStyle;rounded=0;orthogonalLoop=1;jettySize=auto;html=1;exitX=0.5;exitY=1;exitDx=0;exitDy=0;" edge="1" parent="cMxHRg4FrJ7R7kZyLCFy-1" source="bjB36t6IgvT4LcBf4BN3-3" target="bjB36t6IgvT4LcBf4BN3-5">
          <mxGeometry relative="1" as="geometry" />
        </mxCell>
        <mxCell id="bjB36t6IgvT4LcBf4BN3-3" value="客户端将明星相似度以及歌手声音相似度以弹框的方式展示出来。" style="rounded=1;whiteSpace=wrap;html=1;" vertex="1" parent="cMxHRg4FrJ7R7kZyLCFy-1">
          <mxGeometry x="498" y="296" width="120" height="60" as="geometry" />
        </mxCell>
        <mxCell id="bjB36t6IgvT4LcBf4BN3-8" style="edgeStyle=orthogonalEdgeStyle;rounded=0;orthogonalLoop=1;jettySize=auto;html=1;exitX=0.5;exitY=1;exitDx=0;exitDy=0;" edge="1" parent="cMxHRg4FrJ7R7kZyLCFy-1" source="bjB36t6IgvT4LcBf4BN3-5" target="bjB36t6IgvT4LcBf4BN3-7">
          <mxGeometry relative="1" as="geometry" />
        </mxCell>
        <mxCell id="bjB36t6IgvT4LcBf4BN3-5" value="用户点击查看推荐标题列表，客户端请求服务器，拉取配置的标题列表" style="rounded=1;whiteSpace=wrap;html=1;" vertex="1" parent="cMxHRg4FrJ7R7kZyLCFy-1">
          <mxGeometry x="498" y="402" width="120" height="60" as="geometry" />
        </mxCell>
        <mxCell id="bjB36t6IgvT4LcBf4BN3-7" value="服务端下发标题列表到客户端后，客户再进行选择和编辑" style="rounded=1;whiteSpace=wrap;html=1;" vertex="1" parent="cMxHRg4FrJ7R7kZyLCFy-1">
          <mxGeometry x="498" y="508" width="120" height="60" as="geometry" />
        </mxCell>
      </root>
    </mxGraphModel>
  </diagram>
  <diagram id="wU5MFJK2WqZDYGnxHTPg" name="Page-4">
    <mxGraphModel dx="1422" dy="761" grid="0" gridSize="10" guides="1" tooltips="1" connect="1" arrows="1" fold="1" page="1" pageScale="1" pageWidth="1169" pageHeight="827" math="0" shadow="0">
      <root>
        <mxCell id="_Oh3Q-y2pbPg4kCJagQQ-0" />
        <mxCell id="_Oh3Q-y2pbPg4kCJagQQ-1" parent="_Oh3Q-y2pbPg4kCJagQQ-0" />
        <mxCell id="fuh1BCHFDu2gbQRiOYlM-4" style="edgeStyle=orthogonalEdgeStyle;rounded=0;orthogonalLoop=1;jettySize=auto;html=1;exitX=0.5;exitY=1;exitDx=0;exitDy=0;" edge="1" parent="_Oh3Q-y2pbPg4kCJagQQ-1" source="fuh1BCHFDu2gbQRiOYlM-0" target="fuh1BCHFDu2gbQRiOYlM-3">
          <mxGeometry relative="1" as="geometry" />
        </mxCell>
        <mxCell id="fuh1BCHFDu2gbQRiOYlM-0" value="服务器用户电影频道或电视剧长时间观看留下的记录" style="rounded=1;whiteSpace=wrap;html=1;" vertex="1" parent="_Oh3Q-y2pbPg4kCJagQQ-1">
          <mxGeometry x="491" y="56" width="120" height="60" as="geometry" />
        </mxCell>
        <mxCell id="fuh1BCHFDu2gbQRiOYlM-5" style="edgeStyle=orthogonalEdgeStyle;rounded=0;orthogonalLoop=1;jettySize=auto;html=1;exitX=0.5;exitY=1;exitDx=0;exitDy=0;" edge="1" parent="_Oh3Q-y2pbPg4kCJagQQ-1" source="fuh1BCHFDu2gbQRiOYlM-1" target="fuh1BCHFDu2gbQRiOYlM-2">
          <mxGeometry relative="1" as="geometry" />
        </mxCell>
        <mxCell id="fuh1BCHFDu2gbQRiOYlM-1" value="服务器记录用户在那个歌曲演唱期间打赏过" style="rounded=1;whiteSpace=wrap;html=1;" vertex="1" parent="_Oh3Q-y2pbPg4kCJagQQ-1">
          <mxGeometry x="709" y="56" width="120" height="60" as="geometry" />
        </mxCell>
        <mxCell id="fuh1BCHFDu2gbQRiOYlM-12" style="edgeStyle=orthogonalEdgeStyle;rounded=0;orthogonalLoop=1;jettySize=auto;html=1;exitX=0.5;exitY=1;exitDx=0;exitDy=0;" edge="1" parent="_Oh3Q-y2pbPg4kCJagQQ-1" source="fuh1BCHFDu2gbQRiOYlM-2" target="fuh1BCHFDu2gbQRiOYlM-7">
          <mxGeometry relative="1" as="geometry" />
        </mxCell>
        <mxCell id="fuh1BCHFDu2gbQRiOYlM-20" style="edgeStyle=orthogonalEdgeStyle;rounded=0;orthogonalLoop=1;jettySize=auto;html=1;exitX=0.5;exitY=1;exitDx=0;exitDy=0;" edge="1" parent="_Oh3Q-y2pbPg4kCJagQQ-1" source="fuh1BCHFDu2gbQRiOYlM-2" target="fuh1BCHFDu2gbQRiOYlM-11">
          <mxGeometry relative="1" as="geometry" />
        </mxCell>
        <mxCell id="fuh1BCHFDu2gbQRiOYlM-2" value="服务器检测在平台内存在对应歌手歌曲演唱" style="rounded=1;whiteSpace=wrap;html=1;" vertex="1" parent="_Oh3Q-y2pbPg4kCJagQQ-1">
          <mxGeometry x="709" y="188" width="120" height="60" as="geometry" />
        </mxCell>
        <mxCell id="fuh1BCHFDu2gbQRiOYlM-8" style="edgeStyle=orthogonalEdgeStyle;rounded=0;orthogonalLoop=1;jettySize=auto;html=1;exitX=0.5;exitY=1;exitDx=0;exitDy=0;entryX=0.5;entryY=0;entryDx=0;entryDy=0;" edge="1" parent="_Oh3Q-y2pbPg4kCJagQQ-1" source="fuh1BCHFDu2gbQRiOYlM-3" target="fuh1BCHFDu2gbQRiOYlM-7">
          <mxGeometry relative="1" as="geometry" />
        </mxCell>
        <mxCell id="fuh1BCHFDu2gbQRiOYlM-3" value="服务器记录和明星id相似度高的主播开播" style="rounded=1;whiteSpace=wrap;html=1;" vertex="1" parent="_Oh3Q-y2pbPg4kCJagQQ-1">
          <mxGeometry x="491" y="191" width="120" height="60" as="geometry" />
        </mxCell>
        <mxCell id="fuh1BCHFDu2gbQRiOYlM-6" value="推送顶部的通知" style="rounded=1;whiteSpace=wrap;html=1;" vertex="1" parent="_Oh3Q-y2pbPg4kCJagQQ-1">
          <mxGeometry x="287" y="464" width="120" height="60" as="geometry" />
        </mxCell>
        <mxCell id="fuh1BCHFDu2gbQRiOYlM-9" style="edgeStyle=orthogonalEdgeStyle;rounded=0;orthogonalLoop=1;jettySize=auto;html=1;exitX=0.5;exitY=1;exitDx=0;exitDy=0;" edge="1" parent="_Oh3Q-y2pbPg4kCJagQQ-1" source="fuh1BCHFDu2gbQRiOYlM-7" target="fuh1BCHFDu2gbQRiOYlM-6">
          <mxGeometry relative="1" as="geometry" />
        </mxCell>
        <mxCell id="fuh1BCHFDu2gbQRiOYlM-14" style="edgeStyle=orthogonalEdgeStyle;rounded=0;orthogonalLoop=1;jettySize=auto;html=1;exitX=0.5;exitY=1;exitDx=0;exitDy=0;" edge="1" parent="_Oh3Q-y2pbPg4kCJagQQ-1" source="fuh1BCHFDu2gbQRiOYlM-7" target="fuh1BCHFDu2gbQRiOYlM-10">
          <mxGeometry relative="1" as="geometry" />
        </mxCell>
        <mxCell id="fuh1BCHFDu2gbQRiOYlM-7" value="客户端告知服务器现在在首页范围" style="rounded=1;whiteSpace=wrap;html=1;" vertex="1" parent="_Oh3Q-y2pbPg4kCJagQQ-1">
          <mxGeometry x="491" y="326" width="120" height="60" as="geometry" />
        </mxCell>
        <mxCell id="fuh1BCHFDu2gbQRiOYlM-16" style="edgeStyle=orthogonalEdgeStyle;rounded=0;orthogonalLoop=1;jettySize=auto;html=1;exitX=0.5;exitY=1;exitDx=0;exitDy=0;" edge="1" parent="_Oh3Q-y2pbPg4kCJagQQ-1" source="fuh1BCHFDu2gbQRiOYlM-10" target="fuh1BCHFDu2gbQRiOYlM-15">
          <mxGeometry relative="1" as="geometry" />
        </mxCell>
        <mxCell id="fuh1BCHFDu2gbQRiOYlM-10" value="前置摄像头检测用户的眼睛的观看的客户端的位置" style="rounded=1;whiteSpace=wrap;html=1;" vertex="1" parent="_Oh3Q-y2pbPg4kCJagQQ-1">
          <mxGeometry x="491" y="467" width="120" height="60" as="geometry" />
        </mxCell>
        <mxCell id="fuh1BCHFDu2gbQRiOYlM-21" style="edgeStyle=orthogonalEdgeStyle;rounded=0;orthogonalLoop=1;jettySize=auto;html=1;exitX=0.5;exitY=1;exitDx=0;exitDy=0;" edge="1" parent="_Oh3Q-y2pbPg4kCJagQQ-1" source="fuh1BCHFDu2gbQRiOYlM-11" target="fuh1BCHFDu2gbQRiOYlM-19">
          <mxGeometry relative="1" as="geometry" />
        </mxCell>
        <mxCell id="fuh1BCHFDu2gbQRiOYlM-11" value="客户端告知服务器现在在直播间范围" style="rounded=1;whiteSpace=wrap;html=1;" vertex="1" parent="_Oh3Q-y2pbPg4kCJagQQ-1">
          <mxGeometry x="767" y="347" width="120" height="60" as="geometry" />
        </mxCell>
        <mxCell id="fuh1BCHFDu2gbQRiOYlM-18" style="edgeStyle=orthogonalEdgeStyle;rounded=0;orthogonalLoop=1;jettySize=auto;html=1;exitX=0.5;exitY=1;exitDx=0;exitDy=0;" edge="1" parent="_Oh3Q-y2pbPg4kCJagQQ-1" source="fuh1BCHFDu2gbQRiOYlM-15" target="fuh1BCHFDu2gbQRiOYlM-17">
          <mxGeometry relative="1" as="geometry" />
        </mxCell>
        <mxCell id="fuh1BCHFDu2gbQRiOYlM-15" value="客户端请求用户眼睛观看位置附近版式内容到服务器" style="rounded=1;whiteSpace=wrap;html=1;" vertex="1" parent="_Oh3Q-y2pbPg4kCJagQQ-1">
          <mxGeometry x="491" y="582" width="120" height="60" as="geometry" />
        </mxCell>
        <mxCell id="fuh1BCHFDu2gbQRiOYlM-17" value="服务器下发对应的数据体到客户端，客户端更新附近的观看栅格，让用户能够感知" style="rounded=1;whiteSpace=wrap;html=1;" vertex="1" parent="_Oh3Q-y2pbPg4kCJagQQ-1">
          <mxGeometry x="491" y="690" width="120" height="60" as="geometry" />
        </mxCell>
        <mxCell id="fuh1BCHFDu2gbQRiOYlM-19" value="客户端向服务器拉取直播间信息，并将下一个直播间替换为推送下来直播间的信息" style="rounded=1;whiteSpace=wrap;html=1;" vertex="1" parent="_Oh3Q-y2pbPg4kCJagQQ-1">
          <mxGeometry x="767" y="464" width="120" height="60" as="geometry" />
        </mxCell>
        <mxCell id="fuh1BCHFDu2gbQRiOYlM-22" value="服务器判断正在观看App内的位置" style="text;html=1;strokeColor=none;fillColor=none;align=center;verticalAlign=middle;whiteSpace=wrap;rounded=0;" vertex="1" parent="_Oh3Q-y2pbPg4kCJagQQ-1">
          <mxGeometry x="615" y="258" width="129" height="30" as="geometry" />
        </mxCell>
      </root>
    </mxGraphModel>
  </diagram>
  <diagram id="Wl3C4naXwUDL-6Ufbwz-" name="Page-5">
    <mxGraphModel dx="1422" dy="761" grid="0" gridSize="10" guides="1" tooltips="1" connect="1" arrows="1" fold="1" page="1" pageScale="1" pageWidth="1169" pageHeight="827" math="0" shadow="0">
      <root>
        <mxCell id="a5a97ljazrzmFrzZReSP-0" />
        <mxCell id="a5a97ljazrzmFrzZReSP-1" parent="a5a97ljazrzmFrzZReSP-0" />
        <mxCell id="a5a97ljazrzmFrzZReSP-8" style="edgeStyle=orthogonalEdgeStyle;rounded=0;orthogonalLoop=1;jettySize=auto;html=1;exitX=0.5;exitY=1;exitDx=0;exitDy=0;" edge="1" parent="a5a97ljazrzmFrzZReSP-1" source="a5a97ljazrzmFrzZReSP-2" target="a5a97ljazrzmFrzZReSP-7">
          <mxGeometry relative="1" as="geometry" />
        </mxCell>
        <mxCell id="a5a97ljazrzmFrzZReSP-2" value="当在交友直播间触发用户进入直播间或者新的用户上麦" style="rounded=1;whiteSpace=wrap;html=1;" vertex="1" parent="a5a97ljazrzmFrzZReSP-1">
          <mxGeometry x="405" y="138" width="120" height="60" as="geometry" />
        </mxCell>
        <mxCell id="a5a97ljazrzmFrzZReSP-9" style="edgeStyle=orthogonalEdgeStyle;rounded=0;orthogonalLoop=1;jettySize=auto;html=1;exitX=0;exitY=0.5;exitDx=0;exitDy=0;" edge="1" parent="a5a97ljazrzmFrzZReSP-1" source="a5a97ljazrzmFrzZReSP-3" target="a5a97ljazrzmFrzZReSP-7">
          <mxGeometry relative="1" as="geometry" />
        </mxCell>
        <mxCell id="a5a97ljazrzmFrzZReSP-14" style="edgeStyle=orthogonalEdgeStyle;rounded=0;orthogonalLoop=1;jettySize=auto;html=1;exitX=1;exitY=0.5;exitDx=0;exitDy=0;" edge="1" parent="a5a97ljazrzmFrzZReSP-1" source="a5a97ljazrzmFrzZReSP-3" target="a5a97ljazrzmFrzZReSP-12">
          <mxGeometry relative="1" as="geometry" />
        </mxCell>
        <mxCell id="a5a97ljazrzmFrzZReSP-3" value="服务器结合声音id的类似度给用户配置一个标题标识" style="rounded=1;whiteSpace=wrap;html=1;" vertex="1" parent="a5a97ljazrzmFrzZReSP-1">
          <mxGeometry x="585" y="250" width="120" height="60" as="geometry" />
        </mxCell>
        <mxCell id="a5a97ljazrzmFrzZReSP-13" style="edgeStyle=orthogonalEdgeStyle;rounded=0;orthogonalLoop=1;jettySize=auto;html=1;exitX=0.5;exitY=1;exitDx=0;exitDy=0;" edge="1" parent="a5a97ljazrzmFrzZReSP-1" source="a5a97ljazrzmFrzZReSP-6" target="a5a97ljazrzmFrzZReSP-12">
          <mxGeometry relative="1" as="geometry" />
        </mxCell>
        <mxCell id="a5a97ljazrzmFrzZReSP-6" value="当在交友直播间触发新的用户上麦" style="rounded=1;whiteSpace=wrap;html=1;" vertex="1" parent="a5a97ljazrzmFrzZReSP-1">
          <mxGeometry x="779" y="138" width="120" height="60" as="geometry" />
        </mxCell>
        <mxCell id="a5a97ljazrzmFrzZReSP-11" style="edgeStyle=orthogonalEdgeStyle;rounded=0;orthogonalLoop=1;jettySize=auto;html=1;exitX=0.5;exitY=1;exitDx=0;exitDy=0;" edge="1" parent="a5a97ljazrzmFrzZReSP-1" source="a5a97ljazrzmFrzZReSP-7" target="a5a97ljazrzmFrzZReSP-10">
          <mxGeometry relative="1" as="geometry" />
        </mxCell>
        <mxCell id="a5a97ljazrzmFrzZReSP-7" value="服务器推送对应用户的id到整个直播间的客户端" style="rounded=1;whiteSpace=wrap;html=1;" vertex="1" parent="a5a97ljazrzmFrzZReSP-1">
          <mxGeometry x="405" y="329" width="120" height="60" as="geometry" />
        </mxCell>
        <mxCell id="a5a97ljazrzmFrzZReSP-10" value="客户端接受到信息后，会在对应用户的座位上显示对应的tip信息" style="rounded=1;whiteSpace=wrap;html=1;" vertex="1" parent="a5a97ljazrzmFrzZReSP-1">
          <mxGeometry x="405" y="474" width="120" height="60" as="geometry" />
        </mxCell>
        <mxCell id="a5a97ljazrzmFrzZReSP-16" style="edgeStyle=orthogonalEdgeStyle;rounded=0;orthogonalLoop=1;jettySize=auto;html=1;exitX=0.5;exitY=1;exitDx=0;exitDy=0;" edge="1" parent="a5a97ljazrzmFrzZReSP-1" source="a5a97ljazrzmFrzZReSP-12" target="a5a97ljazrzmFrzZReSP-15">
          <mxGeometry relative="1" as="geometry" />
        </mxCell>
        <mxCell id="a5a97ljazrzmFrzZReSP-12" value="客户端会请求服务器发送全部买上用户的标题信息" style="rounded=1;whiteSpace=wrap;html=1;" vertex="1" parent="a5a97ljazrzmFrzZReSP-1">
          <mxGeometry x="779" y="329" width="120" height="60" as="geometry" />
        </mxCell>
        <mxCell id="a5a97ljazrzmFrzZReSP-15" value="客户端接受到信息后，会在显示全部座位上对应的tip信息" style="rounded=1;whiteSpace=wrap;html=1;" vertex="1" parent="a5a97ljazrzmFrzZReSP-1">
          <mxGeometry x="779" y="476" width="120" height="60" as="geometry" />
        </mxCell>
      </root>
    </mxGraphModel>
  </diagram>
</mxfile>
